<svg width="100" height="100" viewBox="0 0 100 100" fill="none" xmlns="http://www.w3.org/2000/svg">
<mask id="mask0_303_58" style="mask-type:alpha" maskUnits="userSpaceOnUse" x="6" y="0" width="88" height="100">
<path d="M50 0L93.3013 25V75L50 100L6.69873 75V25L50 0Z" fill="#D9D9D9"/>
</mask>
<g mask="url(#mask0_303_58)">
<path d="M7.19873 25.2887L50 0.57735L92.8013 25.2887V74.7113L50 99.4226L7.19873 74.7113V25.2887Z" fill="url(#paint0_linear_303_58)" stroke="#010101"/>
<path d="M22.5 20L22.585 20.5159C22.661 20.9774 23.0226 21.339 23.4841 21.415L24 21.5L23.4841 21.585C23.0226 21.661 22.661 22.0226 22.585 22.4841L22.5 23L22.415 22.4841C22.339 22.0226 21.9774 21.661 21.5159 21.585L21 21.5L21.5159 21.415C21.9774 21.339 22.339 20.9774 22.415 20.5159L22.5 20Z" fill="white"/>
<path d="M79.5357 23L79.7022 24.3315C79.9 25.9141 81.1156 27.1778 82.6893 27.4371L83.0714 27.5L82.6893 27.5629C81.1156 27.8222 79.9 29.0859 79.7022 30.6685L79.5357 32L79.3693 30.6685C79.1714 29.0859 77.9559 27.8222 76.3822 27.5629L76 27.5L76.3822 27.4371C77.9559 27.1778 79.1714 25.9141 79.3693 24.3315L79.5357 23Z" fill="white"/>
<path d="M7.5 33L92.5 37L92.5 54.5C85.5266 57.216 82.7837 61.139 80.5 73.5L80.5 81.5L76.5 84C75.3083 74.646 74.3081 69.3963 70.5 60C64.4659 53.8431 60.7841 52.5626 53.5 55.5C53.5 55.5 48.5 59.5 47.5 63C46.5 66.5 45.8337 68.0401 44.5 78.5C43.8861 85.1389 43.8405 88.8611 44.5 95.5L36 91C36.078 83.3161 35.7797 79.3434 35 72.5C33.7415 62.1483 31.2888 58.2573 24 54.5C18.0624 52.665 14.4637 54.5303 7.5 58L7.5 33Z" fill="#5943CD"/>
<path d="M25.9194 56.0856L29.0072 59.014L31.3429 61.9624L34.0932 69.4152L35.6208 81.4156L36.0789 98.7123L35.1486 109.273L30.1821 103.384L26.3025 98.9712L26.1233 92.2029L25.944 85.4347L24.9929 77.9343L23.2897 70.4538L21.6263 64.4774L18.1439 57.7966L15.3512 54.8603L18.0443 54.0364L20.6154 54.7209L22.8914 55.4132L25.9194 56.0856Z" fill="#D9D9D9"/>
<path d="M25.9194 56.0856L29.0072 59.014L31.3429 61.9624L34.0932 69.4152L35.6208 81.4156L36.0789 98.7123L35.1486 109.273L30.1821 103.384L26.3025 98.9712L26.1233 92.2029L25.944 85.4347L24.9929 77.9343L23.2897 70.4538L21.6263 64.4774L18.1439 57.7966L15.3512 54.8603L18.0443 54.0364L20.6154 54.7209L22.8914 55.4132L25.9194 56.0856Z" fill="url(#paint1_linear_303_58)"/>
<path d="M53.7644 56.1008C63.9192 70.1305 63.8376 95.4687 64.8751 106.228M88.4175 57.4408C92.6193 59.6867 93.7507 62.4253 94.7325 68.5619M14.5991 54.8802C23.1208 60.7548 25.006 72.3531 26.3025 98.9712" stroke="black" stroke-width="1.50459"/>
<path d="M97.402 55.6978L100.49 58.6262L101.322 61.6144L102.905 64.5827L103.757 68.323L104.529 69.0551L94.7126 67.8099L93.861 64.0697L92.9825 61.0827L88.4175 57.4408L89.9017 56.649L92.1179 55.0852L94.374 55.0254L97.402 55.6978Z" fill="url(#paint2_linear_303_58)"/>
<path d="M97.402 55.6978L100.49 58.6262L101.322 61.6144L102.905 64.5827L103.757 68.323L104.529 69.0551L94.7126 67.8099L93.861 64.0697L92.9825 61.0827L88.4175 57.4408L89.9017 56.649L92.1179 55.0852L94.374 55.0254L97.402 55.6978Z" fill="url(#paint3_linear_303_58)"/>
<path d="M65.0648 56.5541L68.9046 59.4626L72.8838 67.6354L74.6805 75.1134L75.6165 110.459L70.199 108.345L64.8751 106.228L64.4768 91.1873L63.5654 85.191L62.6143 77.6906L60.9509 71.7142L60.0993 67.9739L58.4757 63.5016L56.8721 59.7813L53.7445 55.3488L56.0006 55.289L58.2368 54.4772L61.2648 55.1496L65.0648 56.5541Z" fill="url(#paint4_linear_303_58)"/>
<path d="M65.0648 56.5541L68.9046 59.4626L72.8838 67.6354L74.6805 75.1134L75.6165 110.459L70.199 108.345L64.8751 106.228L64.4768 91.1873L63.5654 85.191L62.6143 77.6906L60.9509 71.7142L60.0993 67.9739L58.4757 63.5016L56.8721 59.7813L53.7445 55.3488L56.0006 55.289L58.2368 54.4772L61.2648 55.1496L65.0648 56.5541Z" fill="url(#paint5_linear_303_58)"/>
<path d="M25.9194 56.0856L29.0072 59.014L31.3429 61.9624L34.0931 69.4152L35.6208 81.4156L36.0789 98.7123L35.1486 109.273L30.1821 103.384L26.3025 98.9712L25.944 85.4347L24.9928 77.9343L23.2896 70.4538L21.6263 64.4774L18.1439 57.7966L15.3511 54.8603L18.0443 54.0365L20.6153 54.7209L22.8913 55.4132L25.9194 56.0856Z" fill="#D9D9D9"/>
<path d="M25.9194 56.0856L29.0072 59.014L31.3429 61.9624L34.0931 69.4152L35.6208 81.4156L36.0789 98.7123L35.1486 109.273L30.1821 103.384L26.3025 98.9712L25.944 85.4347L24.9928 77.9343L23.2896 70.4538L21.6263 64.4774L18.1439 57.7966L15.3511 54.8603L18.0443 54.0365L20.6153 54.7209L22.8913 55.4132L25.9194 56.0856Z" fill="url(#paint6_linear_303_58)"/>
<path d="M25.9194 56.0856L29.0072 59.014L31.3429 61.9624L34.0931 69.4152L35.6208 81.4156L36.0789 98.7123L35.1486 109.273L30.1821 103.384L26.3025 98.9712L25.944 85.4347L24.9928 77.9343L23.2896 70.4538L21.6263 64.4774L18.1439 57.7966L15.3511 54.8603L18.0443 54.0365L20.6153 54.7209L22.8913 55.4132L25.9194 56.0856Z" fill="url(#paint7_linear_303_58)"/>
<path d="M53.7644 56.1008C63.9192 70.1305 63.8376 95.4687 64.8751 106.228M88.4175 57.4408C92.6193 59.6867 93.7507 62.4253 94.7325 68.5619M14.5991 54.8802C23.1208 60.7548 25.006 72.3531 26.3025 98.9712" stroke="black" stroke-width="1.50459"/>
<path d="M43.9377 111.297C44.4081 83.5908 41.8437 53.2686 59.7408 54.4371C77.6379 55.6057 75.6178 85.6244 76.275 110.441" stroke="black" stroke-width="1.50459"/>
<path d="M3.57757 64.9553C6.91455 57.4926 9.69544 54.2682 19.8434 53.9888C35.6491 55.97 36.679 72.9905 35.6057 109.261M82.0523 101.258C82.1282 81.3882 76.8743 66.9982 87.6655 57.4607C98.4568 47.9232 105.088 66.3034 103.777 69.075" stroke="black" stroke-width="1.50459"/>
<path d="M23.5 28L23.585 28.5159C23.661 28.9774 24.0226 29.339 24.4841 29.415L25 29.5L24.4841 29.585C24.0226 29.661 23.661 30.0226 23.585 30.4841L23.5 31L23.415 30.4841C23.339 30.0226 22.9774 29.661 22.5159 29.585L22 29.5L22.5159 29.415C22.9774 29.339 23.339 28.9774 23.415 28.5159L23.5 28Z" fill="white"/>
</g>
<mask id="mask1_303_58" style="mask-type:alpha" maskUnits="userSpaceOnUse" x="6" y="0" width="88" height="100">
<path d="M50 0L93.3013 25V75L50 100L6.69873 75V25L50 0Z" fill="#D9D9D9"/>
</mask>
<g mask="url(#mask1_303_58)">
<path d="M22.5 20L22.585 20.5159C22.661 20.9774 23.0226 21.339 23.4841 21.415L24 21.5L23.4841 21.585C23.0226 21.661 22.661 22.0226 22.585 22.4841L22.5 23L22.415 22.4841C22.339 22.0226 21.9774 21.661 21.5159 21.585L21 21.5L21.5159 21.415C21.9774 21.339 22.339 20.9774 22.415 20.5159L22.5 20Z" fill="white"/>
<path d="M79.5357 23L79.7022 24.3315C79.9 25.9141 81.1156 27.1778 82.6893 27.4371L83.0714 27.5L82.6893 27.5629C81.1156 27.8222 79.9 29.0859 79.7022 30.6685L79.5357 32L79.3693 30.6685C79.1714 29.0859 77.9559 27.8222 76.3822 27.5629L76 27.5L76.3822 27.4371C77.9559 27.1778 79.1714 25.9141 79.3693 24.3315L79.5357 23Z" fill="white"/>
<path d="M7.5 33L92.5 37L92.5 54.5C85.5266 57.216 82.7837 61.139 80.5 73.5L80.5 81.5L76.5 84C75.3083 74.646 74.3081 69.3963 70.5 60C64.4659 53.8431 60.7841 52.5626 53.5 55.5C53.5 55.5 48.5 59.5 47.5 63C46.5 66.5 45.8337 68.0401 44.5 78.5C43.8861 85.1389 43.8405 88.8611 44.5 95.5L36 91C36.078 83.3161 35.7797 79.3434 35 72.5C33.7415 62.1483 31.2888 58.2573 24 54.5C18.0624 52.665 14.4637 54.5303 7.5 58L7.5 33Z" fill="#BE9DF3"/>
<path d="M25.9194 56.0856L29.0072 59.014L31.3429 61.9624L34.0932 69.4152L35.6208 81.4156L36.0789 98.7123L35.1486 109.273L30.1821 103.384L26.3025 98.9712L26.1233 92.2029L25.944 85.4347L24.9929 77.9343L23.2897 70.4538L21.6263 64.4774L18.1439 57.7966L15.3512 54.8603L18.0443 54.0364L20.6154 54.7209L22.8914 55.4132L25.9194 56.0856Z" fill="#D9D9D9"/>
<path d="M25.9194 56.0856L29.0072 59.014L31.3429 61.9624L34.0932 69.4152L35.6208 81.4156L36.0789 98.7123L35.1486 109.273L30.1821 103.384L26.3025 98.9712L26.1233 92.2029L25.944 85.4347L24.9929 77.9343L23.2897 70.4538L21.6263 64.4774L18.1439 57.7966L15.3512 54.8603L18.0443 54.0364L20.6154 54.7209L22.8914 55.4132L25.9194 56.0856Z" fill="url(#paint8_linear_303_58)"/>
<path d="M53.7644 56.1008C63.9192 70.1305 63.8376 95.4687 64.8751 106.228M88.4175 57.4408C92.6193 59.6867 93.7507 62.4253 94.7325 68.5619M14.5991 54.8802C23.1208 60.7548 25.006 72.3531 26.3025 98.9712" stroke="black" stroke-width="1.50459"/>
<path d="M97.402 55.6978L100.49 58.6262L101.322 61.6144L102.905 64.5827L103.757 68.323L104.529 69.0551L94.7126 67.8099L93.861 64.0697L92.9825 61.0827L88.4175 57.4408L89.9017 56.649L92.1179 55.0852L94.374 55.0254L97.402 55.6978Z" fill="url(#paint9_linear_303_58)"/>
<path d="M97.402 55.6978L100.49 58.6262L101.322 61.6144L102.905 64.5827L103.757 68.323L104.529 69.0551L94.7126 67.8099L93.861 64.0697L92.9825 61.0827L88.4175 57.4408L89.9017 56.649L92.1179 55.0852L94.374 55.0254L97.402 55.6978Z" fill="url(#paint10_linear_303_58)"/>
<path d="M65.0648 56.5541L68.9046 59.4626L72.8838 67.6354L74.6805 75.1134L75.6165 110.459L70.199 108.345L64.8751 106.228L64.4768 91.1873L63.5654 85.191L62.6143 77.6906L60.9509 71.7142L60.0993 67.9739L58.4757 63.5016L56.8721 59.7813L53.7445 55.3488L56.0006 55.289L58.2368 54.4772L61.2648 55.1496L65.0648 56.5541Z" fill="url(#paint11_linear_303_58)"/>
<path d="M65.0648 56.5541L68.9046 59.4626L72.8838 67.6354L74.6805 75.1134L75.6165 110.459L70.199 108.345L64.8751 106.228L64.4768 91.1873L63.5654 85.191L62.6143 77.6906L60.9509 71.7142L60.0993 67.9739L58.4757 63.5016L56.8721 59.7813L53.7445 55.3488L56.0006 55.289L58.2368 54.4772L61.2648 55.1496L65.0648 56.5541Z" fill="url(#paint12_linear_303_58)"/>
<path d="M25.9194 56.0856L29.0072 59.014L31.3429 61.9624L34.0931 69.4152L35.6208 81.4156L36.0789 98.7123L35.1486 109.273L30.1821 103.384L26.3025 98.9712L25.944 85.4347L24.9928 77.9343L23.2896 70.4538L21.6263 64.4774L18.1439 57.7966L15.3511 54.8603L18.0443 54.0365L20.6153 54.7209L22.8913 55.4132L25.9194 56.0856Z" fill="#D9D9D9"/>
<path d="M25.9194 56.0856L29.0072 59.014L31.3429 61.9624L34.0931 69.4152L35.6208 81.4156L36.0789 98.7123L35.1486 109.273L30.1821 103.384L26.3025 98.9712L25.944 85.4347L24.9928 77.9343L23.2896 70.4538L21.6263 64.4774L18.1439 57.7966L15.3511 54.8603L18.0443 54.0365L20.6153 54.7209L22.8913 55.4132L25.9194 56.0856Z" fill="url(#paint13_linear_303_58)"/>
<path d="M25.9194 56.0856L29.0072 59.014L31.3429 61.9624L34.0931 69.4152L35.6208 81.4156L36.0789 98.7123L35.1486 109.273L30.1821 103.384L26.3025 98.9712L25.944 85.4347L24.9928 77.9343L23.2896 70.4538L21.6263 64.4774L18.1439 57.7966L15.3511 54.8603L18.0443 54.0365L20.6153 54.7209L22.8913 55.4132L25.9194 56.0856Z" fill="url(#paint14_linear_303_58)"/>
<path d="M53.7644 56.1008C63.9192 70.1305 63.8376 95.4687 64.8751 106.228M88.4175 57.4408C92.6193 59.6867 93.7507 62.4253 94.7325 68.5619M14.5991 54.8802C23.1208 60.7548 25.006 72.3531 26.3025 98.9712" stroke="black" stroke-width="1.50459"/>
<path d="M43.9377 111.297C44.4081 83.5908 41.8437 53.2686 59.7408 54.4371C77.6379 55.6057 75.6178 85.6244 76.275 110.441" stroke="black" stroke-width="1.50459"/>
<path d="M3.57757 64.9553C6.91455 57.4926 9.69544 54.2682 19.8434 53.9888C35.6491 55.97 36.679 72.9905 35.6057 109.261M82.0523 101.258C82.1282 81.3882 76.8743 66.9982 87.6655 57.4607C98.4568 47.9232 105.088 66.3034 103.777 69.075" stroke="black" stroke-width="1.50459"/>
<path d="M23.5 28L23.585 28.5159C23.661 28.9774 24.0226 29.339 24.4841 29.415L25 29.5L24.4841 29.585C24.0226 29.661 23.661 30.0226 23.585 30.4841L23.5 31L23.415 30.4841C23.339 30.0226 22.9774 29.661 22.5159 29.585L22 29.5L22.5159 29.415C22.9774 29.339 23.339 28.9774 23.415 28.5159L23.5 28Z" fill="white"/>
</g>
<path d="M19.5357 22L19.7022 23.3315C19.9 24.9141 21.1156 26.1778 22.6893 26.4371L23.0714 26.5L22.6893 26.5629C21.1156 26.8222 19.9 28.0859 19.7022 29.6685L19.5357 31L19.3693 29.6685C19.1714 28.0859 17.9559 26.8222 16.3822 26.5629L16 26.5L16.3822 26.4371C17.9559 26.1778 19.1714 24.9141 19.3693 23.3315L19.5357 22Z" fill="white"/>
<path d="M93.5 36.548L88.8939 36.548M88.8939 36.548L88.9188 36.5051M88.8939 36.548L65.5579 35.3135L6.5 32.5" stroke="black" stroke-width="1.50459"/>
<path d="M36.2336 14.5631C38.2691 12.9253 40.766 11.9272 43.3831 11.7191L43.3834 11.7197L39.6077 21.4783L39.6071 21.4786C37.8116 19.5631 36.6366 17.1444 36.2336 14.5631Z" fill="#8037AC"/>
<path d="M56.2469 28.29L47.71 25.7091L47.7097 25.7085L44.4069 24.7102C42.5217 23.9808 40.9029 22.8609 39.607 21.4786L39.6077 21.4783L43.3834 11.7197L43.3831 11.7191C45.2719 11.5689 47.2229 11.8302 49.1081 12.5597L52.2227 14.0444L60.2739 17.8822L59.2674 20.4834L58.2606 23.0856L57.2537 25.6878L56.2469 28.29ZM49.8081 16.1211C48.0334 15.4339 46.0374 16.3163 45.3511 18.0913C44.664 19.8659 45.5463 21.862 47.3213 22.5482C49.0959 23.2354 51.092 22.353 51.7783 20.578C52.4654 18.8034 51.583 16.8073 49.8081 16.1211Z" fill="#8567BD"/>
<path d="M52.2227 14.0444C54.9576 12.7086 58.2208 12.4723 61.283 13.6571C62.2228 14.0212 63.0869 14.4961 63.8654 15.0628L60.2738 17.8822L52.2227 14.0444Z" fill="#8567BD"/>
<path d="M45.3511 18.0913C46.0374 16.3163 48.0334 15.434 49.8081 16.1211C51.583 16.8074 52.4654 18.8034 51.7783 20.5781C51.092 22.353 49.0959 23.2354 47.3213 22.5482C45.5463 21.862 44.664 19.8659 45.3511 18.0913Z" fill="#8790F0"/>
<path d="M60.2738 17.8822L62.2482 19.922C62.7914 20.4826 62.9586 21.3078 62.6765 22.0356L62.4433 22.6382L59.2673 20.4835L60.2738 17.8822Z" fill="#8037AC"/>
<path d="M59.2674 20.4835L62.4434 22.6383L62.4436 22.6389L61.7486 24.4352L58.2605 23.0857L59.2674 20.4835Z" fill="#8037AC"/>
<path d="M47.71 25.7091L56.2469 28.29L57.0059 32.7916C56.0487 32.6867 55.09 32.4564 54.1499 32.0932C51.0876 30.9083 48.8338 28.5384 47.71 25.7091Z" fill="#8567BD"/>
<path d="M58.2605 23.0856L61.7486 24.4352L61.0529 26.2318L57.2537 25.6878L58.2605 23.0856Z" fill="#8037AC"/>
<path d="M57.2537 25.6878L61.0529 26.2318L60.82 26.8351C60.5379 27.5628 59.8594 28.0604 59.0807 28.11L56.2469 28.29L57.2537 25.6878Z" fill="#8037AC"/>
<path d="M65.9246 28.4844C65.9936 28.6405 66.0031 28.8231 65.9366 28.9948C65.8037 29.3383 65.4174 29.5091 65.0739 29.3762L63.2669 28.6771C62.9235 28.5441 62.7527 28.1578 62.8855 27.8143C63.0185 27.4707 63.4047 27.3 63.7483 27.4329L65.5552 28.132C65.727 28.1985 65.8556 28.3283 65.9246 28.4844Z" fill="#121D2F"/>
<path d="M71.1298 27.5603C71.1989 27.7165 71.2083 27.8989 71.1418 28.0707C71.0089 28.4142 70.6226 28.5849 70.2791 28.452L64.2563 26.1212C63.9129 25.9883 63.7421 25.602 63.875 25.2585C64.0079 24.915 64.3942 24.7443 64.7378 24.8772L70.7605 27.208C70.9323 27.2744 71.0608 27.4042 71.1298 27.5603Z" fill="#121D2F"/>
<path d="M69.1071 23.839C69.1761 23.9952 69.1855 24.1776 69.1191 24.3494C68.9862 24.6929 68.5999 24.8637 68.2563 24.7308L65.2451 23.5657C64.9017 23.4327 64.731 23.0464 64.8638 22.7029C64.9967 22.3594 65.383 22.1887 65.7266 22.3215L68.7377 23.4867C68.9095 23.5531 69.0381 23.6829 69.1071 23.839Z" fill="#121D2F"/>
<path d="M60.8838 17.6125C60.9529 17.7687 60.9623 17.9511 60.8959 18.1229L56.8689 28.5307C56.736 28.8742 56.3497 29.045 56.0061 28.9121C55.6627 28.7791 55.4919 28.3929 55.6247 28.0493L59.6517 17.6415C59.7847 17.2979 60.1709 17.1272 60.5145 17.2601C60.6863 17.3266 60.8148 17.4564 60.8838 17.6125Z" fill="#121D2F"/>
<path d="M52.3264 17.6718C52.7707 18.6768 52.7969 19.7944 52.4002 20.819C52.0041 21.8434 51.2325 22.6523 50.2275 23.0966C49.2225 23.5408 48.1049 23.567 47.0803 23.1704C46.056 22.7743 45.247 22.0027 44.8027 20.9977C44.3585 19.9927 44.3323 18.8751 44.7289 17.8505C45.125 16.8262 45.8967 16.0172 46.9016 15.573C47.9065 15.1288 49.0241 15.1026 50.0485 15.499C50.0486 15.499 50.0485 15.4991 50.0488 15.4992C51.0734 15.8953 51.8822 16.6669 52.3264 17.6718ZM46.0229 20.4583C46.323 21.1372 46.8696 21.6586 47.5618 21.9262C48.2541 22.1943 49.0092 22.1766 49.6882 21.8764C50.3672 21.5763 50.8885 21.0298 51.1561 20.3376C51.4242 19.6452 51.4065 18.8901 51.1064 18.2111C50.8062 17.5321 50.2597 17.0108 49.5675 16.7432C49.5674 16.7431 49.5673 16.7431 49.5672 16.7431C48.8751 16.4751 48.12 16.4928 47.4411 16.793C46.7621 17.0931 46.2407 17.6396 45.9732 18.3318C45.705 19.0242 45.7228 19.7793 46.0229 20.4583Z" fill="#121D2F"/>
<path d="M61.6633 25.9627C61.7121 26.0731 61.7316 26.1981 61.7132 26.3264C61.661 26.6911 61.323 26.9443 60.9584 26.8921L57.1592 26.3481C56.7945 26.2958 56.5411 25.9579 56.5935 25.5933C56.6456 25.2286 56.9836 24.9754 57.3482 25.0276L61.1474 25.5716C61.3838 25.6055 61.5734 25.7593 61.6633 25.9627Z" fill="#121D2F"/>
<path d="M62.3586 24.1655C62.4276 24.3217 62.437 24.5041 62.3706 24.6759C62.2377 25.0194 61.8514 25.1902 61.5078 25.0573L58.0198 23.7078C57.6763 23.5748 57.5056 23.1886 57.6384 22.8451C57.7714 22.5015 58.1576 22.3307 58.5011 22.4636L61.9892 23.8132C62.161 23.8796 62.2896 24.0094 62.3586 24.1655Z" fill="#121D2F"/>
<path d="M63.0531 22.3679C63.143 22.5713 63.1293 22.8151 62.9952 23.0126C62.7884 23.3175 62.3736 23.3969 62.0689 23.1901L58.8929 21.0353C58.5879 20.8286 58.5085 20.4138 58.7154 20.1089C58.9222 19.8041 59.337 19.7247 59.6418 19.9314L62.8178 22.0862C62.9251 22.159 63.0043 22.2575 63.0531 22.3679Z" fill="#121D2F"/>
<path d="M48.3199 25.439C48.3821 25.5798 48.3961 25.7426 48.3481 25.9014C48.2416 26.254 47.8694 26.4535 47.5167 26.3469L44.2138 25.3487C43.8613 25.2421 43.6618 24.8699 43.7684 24.5172C43.875 24.1646 44.2472 23.9651 44.5998 24.0718L47.9027 25.07C48.0964 25.1286 48.244 25.2674 48.3199 25.439Z" fill="#121D2F"/>
<path d="M63.2486 20.232C63.5303 20.8694 63.5582 21.6064 63.2983 22.2767L63.0743 22.8557C63.0716 22.8637 63.0687 22.8716 63.0656 22.8795L61.4422 27.0752C61.0672 28.0425 60.157 28.7097 59.1231 28.7756L56.2892 28.9556C56.2097 28.9606 56.13 28.9514 56.0539 28.9284L47.517 26.3475C47.1644 26.2407 46.965 25.8686 47.0716 25.516C47.1782 25.1634 47.5504 24.964 47.903 25.0706L56.3247 27.6167L59.0384 27.4444C59.5554 27.4114 60.0107 27.0776 60.1981 26.5939L61.8127 22.4212C61.8154 22.4133 61.8182 22.4054 61.8213 22.3975L62.0545 21.7949C62.242 21.3111 62.13 20.7584 61.7693 20.386L59.8783 18.4324L48.8211 13.1617C48.4885 13.0031 48.3476 12.605 48.506 12.2726C48.6645 11.9401 49.0626 11.799 49.3951 11.9575L60.5608 17.2801C60.6326 17.3143 60.6978 17.3611 60.7531 17.4182L62.7275 19.4581C62.9491 19.6868 63.1238 19.9497 63.2486 20.232Z" fill="#121D2F"/>
<path d="M49.7181 12.29C49.7871 12.4461 49.7965 12.6286 49.7301 12.8004C49.5972 13.1439 49.2109 13.3146 48.8673 13.1818C47.1181 12.5049 45.2907 12.2365 43.4359 12.384C41.0751 12.5718 38.8439 13.4202 36.9585 14.8436C37.3949 17.1652 38.474 19.2946 40.0936 21.0225C41.3661 22.38 42.8983 23.4115 44.6475 24.0883C44.9909 24.2212 45.1617 24.6074 45.0289 24.951C44.896 25.2946 44.5097 25.4653 44.1661 25.3324C42.2286 24.5827 40.5309 23.4396 39.1204 21.9349C37.228 19.9158 36.0017 17.4023 35.5745 14.666C35.5377 14.4303 35.6296 14.193 35.8154 14.0435C37.9732 12.3073 40.5718 11.2736 43.3303 11.0543C45.3863 10.8908 47.4112 11.188 49.3487 11.9376C49.5204 12.0041 49.6491 12.1339 49.7181 12.29Z" fill="#121D2F"/>
<path d="M43.9935 11.45C44.0625 11.6062 44.0719 11.7886 44.0055 11.9604L40.2297 21.719C40.0968 22.0625 39.7105 22.2333 39.3669 22.1004C39.0233 21.9673 38.8527 21.5811 38.9855 21.2376L42.7613 11.479C42.8942 11.1354 43.2805 10.9647 43.6241 11.0976C43.7959 11.1641 43.9245 11.2939 43.9935 11.45Z" fill="#121D2F"/>
<path d="M56.8566 28.0197C56.8791 28.0705 56.8953 28.1244 56.9046 28.1792L57.6635 32.6808C57.6983 32.8869 57.6344 33.0974 57.4909 33.2494C57.3474 33.4014 57.141 33.4774 56.9332 33.4546C55.9049 33.342 54.8876 33.0933 53.9095 32.7153C50.8058 31.5145 48.3197 29.0519 47.0913 25.9583C46.9572 25.626 47.1101 25.2447 47.4402 25.0988C47.777 24.9499 48.1708 25.1019 48.3197 25.4389L48.32 25.4395C48.3234 25.4472 48.3267 25.455 48.3299 25.4629C49.4219 28.2135 51.6315 30.4037 54.3905 31.4711C54.9788 31.6985 55.5829 31.8732 56.1948 31.9935L55.5915 28.4149C55.5344 28.1167 55.6875 27.8076 55.977 27.6797C56.3139 27.5307 56.7077 27.6828 56.8566 28.0197Z" fill="#121D2F"/>
<path d="M64.4754 14.7932C64.5109 14.8734 64.5306 14.9608 64.5322 15.0507C64.536 15.2598 64.4416 15.4584 64.2773 15.5875L60.6858 18.4069C60.396 18.6344 59.9767 18.5838 59.7493 18.294C59.5217 18.0046 59.5723 17.585 59.862 17.3576L62.7286 15.1074C62.195 14.7844 61.6304 14.507 61.0422 14.2791C58.2834 13.2117 55.1754 13.3445 52.5155 14.6439C52.1845 14.8055 51.7851 14.6683 51.6234 14.3373C51.4607 14.0075 51.599 13.6069 51.93 13.4452C54.9226 11.9836 58.4194 11.834 61.5238 13.0352C62.5017 13.4141 63.4216 13.9149 64.258 14.5237C64.3542 14.5936 64.4285 14.6871 64.4754 14.7932Z" fill="#121D2F"/>
<path d="M42.3415 54.8828C42.3623 55.6676 41.7429 56.3207 40.9581 56.3415C40.1732 56.3623 39.5202 55.7429 39.4994 54.9581C39.4786 54.1732 40.098 53.5202 40.8828 53.4994C41.6676 53.4786 42.3207 54.098 42.3415 54.8828Z" fill="#A386D6" stroke="black" stroke-width="0.9"/>
<path d="M93.2727 49.6364L50.7273 48L42 54" stroke="#010001" stroke-width="1.09091"/>
<path d="M83.5 24L83.585 24.5159C83.661 24.9774 84.0226 25.339 84.4841 25.415L85 25.5L84.4841 25.585C84.0226 25.661 83.661 26.0226 83.585 26.4841L83.5 27L83.415 26.4841C83.339 26.0226 82.9774 25.661 82.5159 25.585L82 25.5L82.5159 25.415C82.9774 25.339 83.339 24.9774 83.415 24.5159L83.5 24Z" fill="white"/>
<path d="M11.021 44.0721L11.2885 37.3698L15.3099 37.5303L15.2564 38.8708L16.5969 38.9243L16.4363 42.9457L15.0959 42.8922L15.0424 44.2326L11.021 44.0721ZM12.415 42.7852L15.0423 42.89L15.2028 38.8687L12.5755 38.7638L12.415 42.7852ZM20.4042 44.4467L20.4577 43.1062L19.1173 43.0527L19.3313 37.6909L20.6717 37.7444L20.4577 43.1062L23.1386 43.2132L23.0851 44.5537L20.4042 44.4467ZM23.1386 43.2132L23.3527 37.8514L24.6931 37.9049L24.4791 43.2667L23.1386 43.2132ZM28.447 44.7677L28.5005 43.4273L27.16 43.3737L27.374 38.0119L28.7145 38.0654L28.5005 43.4273L29.8409 43.4808L29.7874 44.8212L28.447 44.7677ZM32.5219 43.5878L32.7359 38.2259L34.0763 38.2794L33.8623 43.6413L32.5219 43.5878ZM31.1279 44.8747L31.1814 43.5343L29.8409 43.4808L30.0015 39.4594L31.3419 39.5129L31.1814 43.5343L32.5219 43.5878L32.4683 44.9282L31.1279 44.8747ZM36.4897 45.0888L36.7573 38.3865L38.0977 38.44L37.8302 45.1423L36.4897 45.0888ZM41.8516 45.3028L42.0656 39.9409L40.7251 39.8874L40.7786 38.547L44.8 38.7075L44.7465 40.048L43.406 39.9945L43.192 45.3563L41.8516 45.3028ZM52.5752 45.7308L52.8428 39.0285L54.1832 39.0821L54.0762 41.763L56.7571 41.87L56.8641 39.1891L58.2046 39.2426L57.9371 45.9449L56.5966 45.8914L56.7036 43.2104L54.0227 43.1034L53.9157 45.7843L52.5752 45.7308ZM60.618 46.0519L60.832 40.69L62.1725 40.7436L62.226 39.4031L64.9069 39.5101L64.8534 40.8506L66.1938 40.9041L65.9798 46.2659L64.6394 46.2124L64.7464 43.5315L62.0655 43.4245L61.9584 46.1054L60.618 46.0519ZM62.119 42.084L64.7999 42.191L64.8513 40.9042L62.1703 40.7972L62.119 42.084ZM72.8426 42.5121L72.8961 41.1716L70.2152 41.0646L70.2687 39.7241L72.9497 39.8311L72.8961 41.1716L74.2366 41.2251L74.1831 42.5656L72.8426 42.5121ZM70.0012 46.4264L70.0547 45.086L68.7142 45.0325L68.8748 41.0111L70.2152 41.0646L70.0547 45.086L72.7356 45.193L72.6821 46.5334L70.0012 46.4264ZM72.7356 45.193L72.7891 43.8525L74.1296 43.906L74.0761 45.2465L72.7356 45.193ZM76.7035 46.694L76.971 39.9917L78.3115 40.0452L78.2045 42.7261L79.5449 42.7796L79.4914 44.1201L80.8319 44.1736L80.7784 45.514L82.1188 45.5675L82.0653 46.908L80.7249 46.8545L80.7784 45.514L79.4379 45.4605L79.4914 44.1201L78.151 44.0666L78.044 46.7475L76.7035 46.694ZM80.9389 41.4927L80.9924 40.1522L82.3329 40.2057L82.2794 41.5462L80.9389 41.4927ZM79.5449 42.7796L79.5984 41.4391L80.9389 41.4927L80.8854 42.8331L79.5449 42.7796ZM86.3007 41.7067L86.3542 40.3662L90.3756 40.5267L90.3221 41.8672L86.3007 41.7067ZM88.8211 45.8351L88.8746 44.4946L86.1937 44.3876L86.2472 43.0471L84.9068 42.9936L84.9603 41.6532L86.3007 41.7067L86.2472 43.0471L88.9281 43.1542L88.8746 44.4946L90.2151 44.5481L90.1616 45.8886L88.8211 45.8351ZM84.7463 47.015L84.7998 45.6745L88.8211 45.8351L88.7676 47.1755L84.7463 47.015Z" fill="#F8EEEE"/>
<defs>
<linearGradient id="paint0_linear_303_58" x1="49.9795" y1="100" x2="50.0205" y2="-1.14734e-06" gradientUnits="userSpaceOnUse">
<stop stop-color="#9BA3FE"/>
<stop offset="1" stop-color="#07369B"/>
</linearGradient>
<linearGradient id="paint1_linear_303_58" x1="25.4877" y1="54.5819" x2="26.9417" y2="109.49" gradientUnits="userSpaceOnUse">
<stop stop-color="#6B30F5"/>
<stop offset="1" stop-color="#E096EE"/>
</linearGradient>
<linearGradient id="paint2_linear_303_58" x1="61.5838" y1="54.7888" x2="61.5838" y2="110.459" gradientUnits="userSpaceOnUse">
<stop stop-color="#52165D"/>
<stop offset="1" stop-color="#E096EE"/>
</linearGradient>
<linearGradient id="paint3_linear_303_58" x1="61.5838" y1="54.7888" x2="61.5838" y2="110.459" gradientUnits="userSpaceOnUse">
<stop stop-color="#271198"/>
<stop offset="1" stop-color="#505CE6"/>
</linearGradient>
<linearGradient id="paint4_linear_303_58" x1="61.5838" y1="54.7888" x2="61.5838" y2="110.459" gradientUnits="userSpaceOnUse">
<stop stop-color="#52165D"/>
<stop offset="1" stop-color="#E096EE"/>
</linearGradient>
<linearGradient id="paint5_linear_303_58" x1="61.5838" y1="54.7888" x2="61.5838" y2="110.459" gradientUnits="userSpaceOnUse">
<stop stop-color="#271198"/>
<stop offset="1" stop-color="#505CE6"/>
</linearGradient>
<linearGradient id="paint6_linear_303_58" x1="25.4877" y1="54.5819" x2="26.9417" y2="109.49" gradientUnits="userSpaceOnUse">
<stop stop-color="#6B30F5"/>
<stop offset="1" stop-color="#E096EE"/>
</linearGradient>
<linearGradient id="paint7_linear_303_58" x1="25.4877" y1="54.5819" x2="26.9417" y2="109.49" gradientUnits="userSpaceOnUse">
<stop stop-color="#271198"/>
<stop offset="1" stop-color="#505CE6"/>
</linearGradient>
<linearGradient id="paint8_linear_303_58" x1="25.4877" y1="54.5819" x2="26.9417" y2="109.49" gradientUnits="userSpaceOnUse">
<stop stop-color="#6B30F5"/>
<stop offset="1" stop-color="#E096EE"/>
</linearGradient>
<linearGradient id="paint9_linear_303_58" x1="61.5838" y1="54.7888" x2="61.5838" y2="110.459" gradientUnits="userSpaceOnUse">
<stop stop-color="#52165D"/>
<stop offset="1" stop-color="#E096EE"/>
</linearGradient>
<linearGradient id="paint10_linear_303_58" x1="61.5838" y1="54.7888" x2="61.5838" y2="110.459" gradientUnits="userSpaceOnUse">
<stop stop-color="#271198"/>
<stop offset="1" stop-color="#505CE6"/>
</linearGradient>
<linearGradient id="paint11_linear_303_58" x1="61.5838" y1="54.7888" x2="61.5838" y2="110.459" gradientUnits="userSpaceOnUse">
<stop stop-color="#52165D"/>
<stop offset="1" stop-color="#E096EE"/>
</linearGradient>
<linearGradient id="paint12_linear_303_58" x1="61.5838" y1="54.7888" x2="61.5838" y2="110.459" gradientUnits="userSpaceOnUse">
<stop stop-color="#271198"/>
<stop offset="1" stop-color="#505CE6"/>
</linearGradient>
<linearGradient id="paint13_linear_303_58" x1="25.4877" y1="54.5819" x2="26.9417" y2="109.49" gradientUnits="userSpaceOnUse">
<stop stop-color="#6B30F5"/>
<stop offset="1" stop-color="#E096EE"/>
</linearGradient>
<linearGradient id="paint14_linear_303_58" x1="25.4877" y1="54.5819" x2="26.9417" y2="109.49" gradientUnits="userSpaceOnUse">
<stop stop-color="#271198"/>
<stop offset="1" stop-color="#505CE6"/>
</linearGradient>
</defs>
</svg>
