<svg width="300" height="300" viewBox="0 0 300 300" fill="none" xmlns="http://www.w3.org/2000/svg">
<g clip-path="url(#clip0_309_91)">
<rect width="300" height="300" fill="white"/>
<mask id="mask0_309_91" style="mask-type:alpha" maskUnits="userSpaceOnUse" x="0" y="0" width="300" height="300">
<path d="M128.871 0H300V75V225V300H128.871H0V225V51V0H128.871Z" fill="#505CE6"/>
</mask>
<g mask="url(#mask0_309_91)">
<path d="M-18 -9L327 -8.99999L320.235 315L-18 315L-18 -9Z" fill="url(#paint0_linear_309_91)"/>
<path d="M-3 99L106.5 105L300 111L300 253.5L297 231L292.5 204L289.5 186L279 172.5L265.5 168L255 168L237 181.5L231 202.5L225 253.5L225 304.5L202.5 304.5L202.5 264L196.5 211.5L183 181.5L168 168L145.5 163.5L132 169.5L124.5 178.5L112.5 204L109.5 231L106.5 291L106.5 306L82.5 306L82.5 277.5L79.5 217.5L75 199.5L66 181.5L58.5 172.5L49.5 168L37.5 165L22.4999 168L8.99991 178.5L-9.15491e-05 210L-1.50009 186L-3 99Z" fill="#A386D6"/>
<path d="M53.758 168.257L63.0214 177.042L70.0286 185.887L78.2793 208.245L82.8624 244.247L84.2365 296.137L81.4457 327.818L66.5462 310.151L54.9073 296.914L54.3696 276.609L53.8319 256.304L50.9784 233.803L45.8688 211.361L40.8787 193.432L30.4315 173.39L22.0533 164.581L30.1328 162.109L37.8459 164.163L44.6739 166.24L53.758 168.257Z" fill="#D9D9D9"/>
<path d="M53.758 168.257L63.0214 177.042L70.0286 185.887L78.2793 208.245L82.8624 244.247L84.2365 296.137L81.4457 327.818L66.5462 310.151L54.9073 296.914L54.3696 276.609L53.8319 256.304L50.9784 233.803L45.8688 211.361L40.8787 193.432L30.4315 173.39L22.0533 164.581L30.1328 162.109L37.8459 164.163L44.6739 166.24L53.758 168.257Z" fill="url(#paint1_linear_309_91)"/>
<path d="M270.153 166.984L286.662 176.891L289.217 183.139L292.946 193.391L295.946 205.391L300.446 256.194L301.946 299.891L292.946 299.891L270.153 299.891L268.5 231L262.946 193.391L259.529 183.139L253.5 172.5L247.651 169.837L255.446 166.984L262.946 166.984L270.153 166.984Z" fill="url(#paint2_linear_309_91)"/>
<path d="M270.153 166.984L286.662 176.891L289.217 183.139L292.946 193.391L295.946 205.391L300.446 256.194L301.946 299.891L292.946 299.891L270.153 299.891L268.5 231L262.946 193.391L259.529 183.139L253.5 172.5L247.651 169.837L255.446 166.984L262.946 166.984L270.153 166.984Z" fill="url(#paint3_linear_309_91)"/>
<path d="M175.407 169.553L186.927 178.278L198.864 202.797L204.254 225.231L207.062 331.267L190.81 324.924L174.838 318.574L173.643 273.452L173.643 256.194L170.909 236.891L168.446 218.891L165.446 205.391L159.446 192.1L151.946 178.278L141.446 165.937L145.946 164.471L154.923 163.322L164.007 165.339L175.407 169.553Z" fill="url(#paint4_linear_309_91)"/>
<path d="M175.407 169.553L186.927 178.278L198.864 202.797L204.254 225.231L207.062 331.267L190.81 324.924L174.838 318.574L173.643 273.452L173.643 256.194L170.909 236.891L168.446 218.891L165.446 205.391L159.446 192.1L151.946 178.278L141.446 165.937L145.946 164.471L154.923 163.322L164.007 165.339L175.407 169.553Z" fill="url(#paint5_linear_309_91)"/>
<path d="M55.7046 168.147L64.9679 176.933L71.9751 185.778L80.2258 208.136L84.8089 244.137L86.183 296.027L83.3922 327.709L68.4927 310.042L56.8538 296.804L55.7785 256.194L52.9249 233.693L47.8153 211.252L42.8252 193.323L32.378 173.28L23.9998 164.471L32.0793 162L39.7924 164.053L46.6205 166.13L55.7046 168.147Z" fill="#D9D9D9"/>
<path d="M55.7046 168.147L64.9679 176.933L71.9751 185.778L80.2258 208.136L84.8089 244.137L86.183 296.027L83.3922 327.709L68.4927 310.042L56.8538 296.804L55.7785 256.194L52.9249 233.693L47.8153 211.252L42.8252 193.323L32.378 173.28L23.9998 164.471L32.0793 162L39.7924 164.053L46.6205 166.13L55.7046 168.147Z" fill="url(#paint6_linear_309_91)"/>
<path d="M55.7046 168.147L64.9679 176.933L71.9751 185.778L80.2258 208.136L84.8089 244.137L86.183 296.027L83.3922 327.709L68.4927 310.042L56.8538 296.804L55.7785 256.194L52.9249 233.693L47.8153 211.252L42.8252 193.323L32.378 173.28L23.9998 164.471L32.0793 162L39.7924 164.053L46.6205 166.13L55.7046 168.147Z" fill="url(#paint7_linear_309_91)"/>
<path d="M138.633 166.445C183 202.5 169.089 292.392 172.26 326.804M250.5 171C273.285 180.091 267 250.5 273 322.5M23.9998 166.445C47.9998 190.5 52.3452 218.27 56.3763 303.399" stroke="black" stroke-width="4.5"/>
<path d="M107.813 333.892C109.224 250.772 103.706 159.806 157.397 163.311C211.089 166.817 205.028 256.873 207 331.323M226.5 309C222 210 226.5 157.5 274.5 169.5M272.378 169.005C300.878 176.785 297.149 241.069 300.149 316.069" stroke="black" stroke-width="4"/>
<path d="M-5.99992 291C2.48311 270.118 -16.4999 160.5 39.2955 163.88C79.7173 169.532 85.4607 217.214 82.9516 318.803" stroke="black" stroke-width="4"/>
<path d="M54.3333 48L54.7299 50.1106C55.0846 51.9983 56.7723 53.4778 58.9257 53.7887L61.3333 54.1364L58.9257 54.484C56.7723 54.7949 55.0846 56.2745 54.7299 58.1622L54.3333 60.2727L53.9367 58.1622C53.582 56.2745 51.8943 54.7949 49.7409 54.484L47.3333 54.1364L49.7409 53.7887C51.8943 53.4778 53.582 51.9983 53.9367 50.1106L54.3333 48Z" fill="white"/>
<path d="M58.9999 80.7274L59.3965 82.8379C59.7512 84.7256 61.439 86.2051 63.5923 86.5161L65.9999 86.8637L63.5923 87.2114C61.439 87.5223 59.7512 89.0018 59.3965 90.8895L58.9999 93.0001L58.6034 90.8895C58.2487 89.0018 56.5609 87.5223 54.4075 87.2114L51.9999 86.8637L54.4076 86.5161C56.5609 86.2051 58.2487 84.7256 58.6034 82.8379L58.9999 80.7274Z" fill="white"/>
<path d="M40.5 56.1819L41.2767 61.6288C42.2 68.103 47.8726 73.273 55.2166 74.3335L57 74.591L55.2166 74.8485C47.8726 75.9089 42.2 81.0789 41.2767 87.5532L40.5 93.0001L39.7233 87.5532C38.8 81.0789 33.1274 75.9089 25.7834 74.8485L24 74.591L25.7834 74.3335C33.1274 73.273 38.8 68.103 39.7233 61.6288L40.5 56.1819Z" fill="white"/>
<path d="M274 60L274.397 62.1106C274.751 63.9983 276.439 65.4778 278.592 65.7887L281 66.1364L278.592 66.484C276.439 66.7949 274.751 68.2745 274.397 70.1622L274 72.2727L273.603 70.1622C273.249 68.2745 271.561 66.7949 269.408 66.484L267 66.1364L269.408 65.7887C271.561 65.4778 273.249 63.9983 273.603 62.1106L274 60Z" fill="white"/>
<path d="M256.5 63L257.277 68.4469C258.2 74.9211 263.873 80.0912 271.217 81.1516L273 81.4091L271.217 81.6666C263.873 82.727 258.2 87.897 257.277 94.3713L256.5 99.8182L255.723 94.3713C254.8 87.897 249.127 82.727 241.783 81.6666L240 81.4091L241.783 81.1516C249.127 80.0911 254.8 74.9212 255.723 68.4469L256.5 63Z" fill="white"/>
<path d="M214.5 15L214.712 16.3315C214.964 17.9141 216.511 19.1778 218.514 19.4371L219 19.5L218.514 19.5629C216.511 19.8222 214.964 21.0859 214.712 22.6685L214.5 24L214.288 22.6685C214.036 21.0859 212.489 19.8222 210.486 19.5629L210 19.5L210.486 19.4371C212.489 19.1778 214.036 17.9141 214.288 16.3315L214.5 15Z" fill="white"/>
<path d="M333 112.5L283.878 111.013M283.878 111.013L283.965 110.867M283.878 111.013L202.203 106.887L-4.5 97.5" stroke="black" stroke-width="4.5"/>
<path d="M98.11 30.8698C104.094 26.0607 111.435 23.1304 119.129 22.5197L119.13 22.5215L108.031 51.1783L108.03 51.1791C102.751 45.5536 99.2957 38.4503 98.11 30.8698Z" fill="#8037AC"/>
<path d="M156.952 71.1859L131.853 63.6046L131.853 63.6028L122.142 60.6704C116.599 58.5279 111.84 55.2387 108.03 51.1791L108.032 51.1783L119.13 22.5215L119.129 22.5197C124.682 22.0792 130.418 22.847 135.96 24.9896L145.118 29.3505L168.789 40.6226L165.83 48.2615L162.871 55.9029L159.912 63.5444L156.952 71.1859ZM138.019 35.4484C132.802 33.4301 126.934 36.0208 124.916 41.2331C122.897 46.4445 125.491 52.3064 130.71 54.3222C135.927 56.3405 141.795 53.7498 143.813 48.5374C145.832 43.3261 143.238 37.4642 138.019 35.4484Z" fill="#8567BD"/>
<path d="M145.118 29.3505C153.158 25.4282 162.751 24.735 171.755 28.2152C174.518 29.2847 177.058 30.6796 179.347 32.344L168.789 40.6225L145.118 29.3505Z" fill="#8567BD"/>
<path d="M124.916 41.2332C126.933 36.0208 132.801 33.4301 138.019 35.4484C143.238 37.4642 145.832 43.3261 143.812 48.5375C141.795 53.7498 135.927 56.3405 130.71 54.3222C125.491 52.3065 122.896 46.4445 124.916 41.2332Z" fill="#8790F0"/>
<path d="M168.789 40.6227L174.594 46.6134C176.191 48.2598 176.683 50.6834 175.853 52.8206L175.168 54.5901L165.83 48.2615L168.789 40.6227Z" fill="#8037AC"/>
<path d="M165.83 48.2615L175.168 54.5901L175.169 54.5919L173.126 59.8671L162.871 55.903L165.83 48.2615Z" fill="#8037AC"/>
<path d="M131.853 63.6046L156.952 71.1859L159.184 84.4057C156.37 84.0976 153.552 83.4209 150.788 82.3539C141.784 78.8738 135.158 71.9136 131.853 63.6046Z" fill="#8567BD"/>
<path d="M162.871 55.903L173.126 59.8671L171.081 65.143L159.911 63.5445L162.871 55.903Z" fill="#8037AC"/>
<path d="M159.911 63.5444L171.081 65.1429L170.397 66.9143C169.567 69.0515 167.573 70.5125 165.283 70.658L156.952 71.1858L159.911 63.5444Z" fill="#8037AC"/>
<path d="M185.404 71.7591C185.607 72.2176 185.635 72.7536 185.44 73.2578C185.049 74.2666 183.914 74.768 182.903 74.3777L177.591 72.3241C176.581 71.9336 176.079 70.7992 176.469 69.7904C176.86 68.7816 177.996 68.2802 179.006 68.6705L184.318 70.7241C184.823 70.9194 185.201 71.3005 185.404 71.7591Z" fill="#121D2F"/>
<path d="M200.707 69.0466C200.91 69.5053 200.938 70.0411 200.743 70.5456C200.352 71.5544 199.216 72.0556 198.206 71.6652L180.499 64.819C179.489 64.4285 178.987 63.2941 179.378 62.2853C179.768 61.2765 180.904 60.7753 181.914 61.1659L199.621 68.0121C200.126 68.207 200.504 68.5882 200.707 69.0466Z" fill="#121D2F"/>
<path d="M194.76 58.118C194.963 58.5766 194.99 59.1123 194.795 59.6167C194.404 60.6255 193.269 61.1268 192.259 60.7365L183.405 57.3142C182.396 56.9237 181.894 55.7893 182.284 54.7806C182.675 53.7718 183.81 53.2705 184.821 53.6608L193.674 57.0831C194.178 57.2783 194.557 57.6595 194.76 58.118Z" fill="#121D2F"/>
<path d="M170.582 39.8308C170.785 40.2894 170.813 40.825 170.618 41.3295L158.781 71.8928C158.39 72.9015 157.255 73.4029 156.244 73.0126C155.235 72.6221 154.733 71.4877 155.123 70.4788L166.96 39.9154C167.35 38.9066 168.486 38.4053 169.496 38.7956C170.001 38.991 170.379 39.3723 170.582 39.8308Z" fill="#121D2F"/>
<path d="M145.423 40.0028C146.73 42.9542 146.807 46.2364 145.641 49.2451C144.477 52.2532 142.208 54.6287 139.254 55.9331C136.299 57.2375 133.014 57.3141 130.001 56.1491C126.99 54.9857 124.611 52.7195 123.305 49.7681C121.998 46.8167 121.921 43.5345 123.087 40.5259C124.251 37.518 126.52 35.1424 129.474 33.8381C132.428 32.5339 135.714 32.4571 138.726 33.6216C138.726 33.6216 138.726 33.6217 138.727 33.622C141.739 34.7857 144.117 37.0518 145.423 40.0028ZM126.892 48.1842C127.774 50.1782 129.381 51.7094 131.416 52.4953C133.452 53.2829 135.672 53.231 137.668 52.3498C139.664 51.4685 141.197 49.8637 141.983 47.831C142.772 45.7978 142.719 43.5803 141.837 41.5863C140.954 39.5924 139.347 38.0612 137.312 37.2753C137.312 37.275 137.311 37.2749 137.311 37.2749C135.276 36.4877 133.056 36.5396 131.06 37.4208C129.064 38.3021 127.532 39.9069 126.745 41.9396C125.957 43.9728 126.009 46.1902 126.892 48.1842Z" fill="#121D2F"/>
<path d="M172.875 64.3528C173.019 64.677 173.076 65.044 173.022 65.4209C172.869 66.4917 171.875 67.2354 170.803 67.082L159.634 65.4834C158.561 65.3299 157.816 64.3374 157.97 63.2666C158.124 62.1958 159.117 61.4521 160.189 61.6056L171.359 63.2041C172.054 63.3036 172.611 63.7555 172.875 64.3528Z" fill="#121D2F"/>
<path d="M174.919 59.0752C175.122 59.5336 175.15 60.0695 174.955 60.5739C174.564 61.5827 173.429 62.0842 172.418 61.6939L162.163 57.7298C161.153 57.3393 160.651 56.2049 161.042 55.1962C161.433 54.1874 162.568 53.6859 163.578 54.0763L173.833 58.0404C174.338 58.2354 174.716 58.6167 174.919 59.0752Z" fill="#121D2F"/>
<path d="M176.961 53.7964C177.225 54.3937 177.185 55.1095 176.791 55.6897C176.183 56.5848 174.963 56.818 174.067 56.2106L164.73 49.882C163.833 49.275 163.599 48.0567 164.207 47.1613C164.816 46.2663 166.035 46.0331 166.931 46.6404L176.269 52.969C176.584 53.1829 176.817 53.4721 176.961 53.7964Z" fill="#121D2F"/>
<path d="M133.646 62.8117C133.829 63.225 133.87 63.7031 133.729 64.1695C133.416 65.205 132.322 65.7906 131.285 65.4776L121.575 62.5452C120.538 62.2322 119.951 61.1393 120.265 60.1034C120.578 59.0679 121.672 58.4823 122.709 58.7956L132.42 61.7279C132.989 61.8998 133.423 62.3075 133.646 62.8117Z" fill="#121D2F"/>
<path d="M177.535 47.5241C178.363 49.3959 178.446 51.5602 177.682 53.5287L177.023 55.229C177.015 55.2525 177.007 55.2757 176.998 55.2988L172.226 67.6197C171.124 70.4604 168.448 72.4193 165.408 72.6126L157.077 73.1406C156.843 73.1552 156.609 73.1282 156.385 73.0606L131.286 65.4793C130.249 65.1658 129.663 64.0729 129.976 63.0374C130.29 62.0019 131.384 61.4164 132.421 61.7295L157.181 69.2088L165.159 68.7033C166.679 68.6066 168.017 67.6264 168.568 66.206L173.314 53.9527C173.322 53.9295 173.33 53.9061 173.339 53.883L174.025 52.1134C174.576 50.6928 174.246 49.0696 173.186 47.976L167.626 42.2385L135.117 26.7575C134.139 26.2918 133.725 25.1227 134.19 24.1466C134.656 23.1699 135.826 22.7558 136.804 23.2213L169.632 38.8548C169.843 38.9552 170.035 39.0925 170.198 39.2604L176.003 45.2513C176.654 45.9229 177.168 46.695 177.535 47.5241Z" fill="#121D2F"/>
<path d="M137.754 24.1978C137.957 24.6563 137.984 25.1921 137.789 25.6965C137.398 26.7053 136.263 27.2067 135.253 26.8163C130.11 24.8282 124.737 24.0397 119.284 24.4723C112.343 25.0232 105.784 27.5142 100.241 31.6939C101.525 38.5116 104.698 44.7651 109.46 49.8398C113.201 53.8267 117.706 56.8561 122.849 58.844C123.859 59.2345 124.361 60.3687 123.971 61.3778C123.58 62.3866 122.444 62.888 121.434 62.4976C115.738 60.2956 110.746 56.9383 106.599 52.5189C101.035 46.5892 97.4292 39.2076 96.1726 31.1717C96.0644 30.4798 96.3343 29.7828 96.8805 29.3438C103.224 24.2457 110.864 21.2106 118.973 20.5673C125.018 20.0876 130.971 20.9609 136.668 23.1629C137.173 23.3581 137.551 23.7392 137.754 24.1978Z" fill="#121D2F"/>
<path d="M120.923 21.7296C121.126 22.1883 121.154 22.7239 120.959 23.2283L109.86 51.8852C109.469 52.894 108.334 53.3953 107.324 53.005C106.313 52.6141 105.812 51.4799 106.202 50.4712L117.301 21.8144C117.691 20.8056 118.827 20.3042 119.837 20.6945C120.342 20.8901 120.72 21.2712 120.923 21.7296Z" fill="#121D2F"/>
<path d="M158.745 70.3923C158.811 70.5414 158.858 70.6998 158.886 70.8606L161.118 84.0804C161.22 84.6857 161.032 85.3041 160.611 85.7502C160.189 86.1966 159.582 86.4197 158.971 86.3529C155.948 86.0218 152.957 85.2912 150.081 84.181C140.956 80.6537 133.647 73.4216 130.034 64.3362C129.64 63.3604 130.089 62.2408 131.06 61.8123C132.05 61.3751 133.208 61.8217 133.646 62.8112L133.647 62.813C133.657 62.8358 133.666 62.8587 133.676 62.8818C136.887 70.9597 143.384 77.3919 151.495 80.5273C153.225 81.1951 155.001 81.7084 156.8 82.0618L155.025 71.5525C154.857 70.6769 155.308 69.7692 156.159 69.3936C157.149 68.9563 158.307 69.4029 158.745 70.3923Z" fill="#121D2F"/>
<path d="M181.14 31.5523C181.245 31.7879 181.303 32.0445 181.307 32.3086C181.319 32.9226 181.041 33.506 180.558 33.8849L170 42.1636C169.148 42.8316 167.915 42.683 167.246 41.832C166.577 40.9819 166.726 39.7499 167.578 39.082L176.005 32.4747C174.436 31.5261 172.776 30.7114 171.047 30.0418C162.936 26.9065 153.798 27.2959 145.979 31.111C145.005 31.5856 143.831 31.1824 143.356 30.2106C142.877 29.2421 143.284 28.0656 144.257 27.5909C153.055 23.2992 163.335 22.8608 172.462 26.3889C175.337 27.5019 178.042 28.9728 180.501 30.7609C180.784 30.9663 181.003 31.2409 181.14 31.5523Z" fill="#121D2F"/>
<path d="M301.5 157.5L114 148.662L82.2477 161.012" stroke="black" stroke-width="3.5"/>
<path d="M82.4386 162.654C82.3202 165.161 80.2882 166.988 78.0301 166.881C75.7719 166.775 73.9214 164.764 74.0399 162.257C74.1583 159.75 76.1903 157.922 78.4484 158.029C80.7066 158.136 82.5571 160.147 82.4386 162.654Z" fill="#A386D6" stroke="black" stroke-width="3.5"/>
<line y1="-1.75" x2="21.3" y2="-1.75" transform="matrix(0.944228 -0.329294 0.315175 0.949034 130.032 159.326)" stroke="black" stroke-width="3.5"/>
<path d="M129.472 159.461C130.079 161.886 128.656 164.278 126.413 164.875C124.17 165.472 121.802 164.089 121.195 161.663C120.588 159.238 122.011 156.846 124.254 156.249C126.498 155.652 128.865 157.036 129.472 159.461Z" fill="#A386D6" stroke="black" stroke-width="3.5"/>
</g>
<path d="M10.1205 132.113L10.9182 112.129L22.9086 112.607L22.7491 116.604L26.7459 116.764L26.2673 128.754L22.2705 128.594L22.1109 132.591L10.1205 132.113ZM14.2768 128.275L22.1106 128.588L22.5892 116.598L14.7555 116.285L14.2768 128.275ZM42.2549 133.395L42.4144 129.399L38.4176 129.239L39.0558 113.252L43.0526 113.411L42.4144 129.399L50.4081 129.718L50.2485 133.714L42.2549 133.395ZM50.4081 129.718L51.0462 113.73L55.0431 113.89L54.4049 129.877L50.4081 129.718ZM70.3925 134.519L70.552 130.522L66.5552 130.362L67.1934 114.375L71.1902 114.534L70.552 130.522L74.5488 130.681L74.3893 134.678L70.3925 134.519ZM82.5425 131L83.1806 115.013L87.1775 115.173L86.5393 131.16L82.5425 131ZM78.3861 134.838L78.5457 130.841L74.5488 130.681L75.0275 118.691L79.0243 118.85L78.5457 130.841L82.5425 131L82.3829 134.997L78.3861 134.838ZM98.5301 135.642L99.3278 115.658L103.325 115.817L102.527 135.801L98.5301 135.642ZM118.674 136.446L119.312 120.458L115.315 120.299L115.475 116.302L127.465 116.781L127.306 120.778L123.309 120.618L122.671 136.605L118.674 136.446ZM158.962 138.054L159.76 118.07L163.756 118.229L163.437 126.223L171.431 126.542L171.75 118.548L175.747 118.708L174.949 138.692L170.952 138.533L171.271 130.539L163.278 130.22L162.959 138.213L158.962 138.054ZM187.1 139.177L187.738 123.19L191.735 123.349L191.894 119.353L199.888 119.672L199.728 123.668L203.725 123.828L203.087 139.815L199.09 139.656L199.409 131.662L191.415 131.343L191.096 139.337L187.1 139.177ZM191.575 127.346L199.569 127.665L199.722 123.828L191.728 123.509L191.575 127.346ZM227.706 128.788L227.866 124.792L219.872 124.473L220.032 120.476L228.025 120.795L227.866 124.792L231.863 124.951L231.703 128.948L227.706 128.788ZM219.234 140.46L219.393 136.463L215.397 136.303L215.875 124.313L219.872 124.473L219.393 136.463L227.387 136.782L227.228 140.779L219.234 140.46ZM227.387 136.782L227.547 132.785L231.543 132.945L231.384 136.942L227.387 136.782ZM243.375 141.423L244.172 121.439L248.169 121.599L247.85 129.593L251.847 129.752L251.687 133.749L255.684 133.908L255.525 137.905L259.522 138.065L259.362 142.062L255.365 141.902L255.525 137.905L251.528 137.746L251.687 133.749L247.691 133.589L247.372 141.583L243.375 141.423ZM256.003 125.915L256.163 121.918L260.16 122.078L260 126.074L256.003 125.915ZM251.847 129.752L252.007 125.755L256.003 125.915L255.844 129.912L251.847 129.752ZM276.147 126.719L276.307 122.722L288.297 123.201L288.138 127.197L276.147 126.719ZM283.662 139.028L283.822 135.032L275.828 134.713L275.988 130.716L271.991 130.556L272.15 126.559L276.147 126.719L275.988 130.716L283.981 131.035L283.822 135.032L287.819 135.191L287.659 139.188L283.662 139.028ZM271.512 142.547L271.672 138.55L283.662 139.028L283.503 143.025L271.512 142.547Z" fill="#F8EEEE"/>
</g>
<defs>
<linearGradient id="paint0_linear_309_91" x1="150.985" y1="-34.4118" x2="150.985" y2="289.588" gradientUnits="userSpaceOnUse">
<stop stop-color="#0B389D"/>
<stop offset="1" stop-color="#939DF8"/>
</linearGradient>
<linearGradient id="paint1_linear_309_91" x1="52.4629" y1="163.746" x2="56.825" y2="328.47" gradientUnits="userSpaceOnUse">
<stop stop-color="#6B30F5"/>
<stop offset="1" stop-color="#E096EE"/>
</linearGradient>
<linearGradient id="paint2_linear_309_91" x1="168.097" y1="164.257" x2="168.097" y2="331.267" gradientUnits="userSpaceOnUse">
<stop stop-color="#52165D"/>
<stop offset="1" stop-color="#E096EE"/>
</linearGradient>
<linearGradient id="paint3_linear_309_91" x1="168.097" y1="164.257" x2="168.097" y2="331.267" gradientUnits="userSpaceOnUse">
<stop stop-color="#271198"/>
<stop offset="1" stop-color="#505CE6"/>
</linearGradient>
<linearGradient id="paint4_linear_309_91" x1="168.097" y1="164.257" x2="168.097" y2="331.267" gradientUnits="userSpaceOnUse">
<stop stop-color="#52165D"/>
<stop offset="1" stop-color="#E096EE"/>
</linearGradient>
<linearGradient id="paint5_linear_309_91" x1="168.097" y1="164.257" x2="168.097" y2="331.267" gradientUnits="userSpaceOnUse">
<stop stop-color="#271198"/>
<stop offset="1" stop-color="#505CE6"/>
</linearGradient>
<linearGradient id="paint6_linear_309_91" x1="54.4095" y1="163.636" x2="58.7715" y2="328.361" gradientUnits="userSpaceOnUse">
<stop stop-color="#6B30F5"/>
<stop offset="1" stop-color="#E096EE"/>
</linearGradient>
<linearGradient id="paint7_linear_309_91" x1="54.4095" y1="163.636" x2="58.7715" y2="328.361" gradientUnits="userSpaceOnUse">
<stop stop-color="#271198"/>
<stop offset="1" stop-color="#505CE6"/>
</linearGradient>
<clipPath id="clip0_309_91">
<rect width="300" height="300" fill="white"/>
</clipPath>
</defs>
</svg>
