<svg width="466" height="206" viewBox="0 0 466 206" fill="none" xmlns="http://www.w3.org/2000/svg">
<rect x="32" y="10.0712" width="13" height="10.0711" fill="#140000"/>
<rect x="32" y="20.1422" width="13" height="10.0711" fill="#FAD2F6"/>
<rect x="32" y="30.2134" width="13" height="10.0711" fill="#BA81B4"/>
<path d="M33 115H45V126H33V115Z" fill="#BA81B4"/>
<rect x="45" y="20.1422" width="13" height="10.0711" fill="#BA81B4"/>
<rect x="45" width="377" height="10.0711" fill="#020000"/>
<path d="M11 44.8622H22V54.9333H11V44.8622Z" fill="#170000"/>
<rect x="22" y="185.858" width="11" height="10.0711" fill="#010000"/>
<rect x="20" y="175.787" width="13" height="10.0711" fill="#7870A2"/>
<path d="M11 165.716H22V175.787H11V165.716Z" fill="#7870A2"/>
<rect x="11" y="175.787" width="11" height="10.0711" fill="#0D0101"/>
<rect x="33" y="195.929" width="400" height="10.0711" fill="black"/>
<rect x="433" y="185.858" width="11" height="10.0711" fill="#0D0000"/>
<rect x="444" y="155.644" width="11" height="10.0711" fill="#DFDBE7"/>
<path d="M444 165.716H457V175.787H444V165.716Z" fill="#7870A2"/>
<rect x="433" y="175.787" width="13" height="10.0711" fill="#7870A2"/>
<rect x="33" y="185.858" width="400" height="10.0711" fill="#877FB1"/>
<rect x="444" y="175.787" width="11" height="10.0711" fill="#1C0101"/>
<rect x="444" y="44.8622" width="11" height="10.0711" fill="#010000"/>
<rect x="433" y="20.1422" width="11" height="125.431" fill="#140202"/>
<rect x="32" y="145.573" width="13" height="10.0711" fill="black"/>
<rect x="33" y="175.787" width="400" height="10.0711" fill="#DFDBE7"/>
<rect x="422" y="10.0712" width="11" height="10.0711" fill="#150505"/>
<path d="M422 20.1422H433V30.2133H422V20.1422Z" fill="#FAD2F6"/>
<rect x="11" y="155.644" width="11" height="10.0711" fill="#DFDBE7"/>
<path d="M22 165.716H33V175.787H22V165.716Z" fill="#DFDBE7"/>
<path d="M58.0001 144.658H124.294L124 150.609H109.754L109.754 155.644H58.0001V144.658Z" fill="#A47F9C"/>
<rect x="33" y="126" width="12" height="11" fill="#FAD2F6"/>
<path d="M33 136H45V145.573H58V155.644H45V145.573H33V136Z" fill="#CA9DC0"/>
<path d="M109 150.609H123V144.658L174 145.115H187V151.067H173V155.644H109V150.609Z" fill="#CA9DC0"/>
<path d="M45 136H422V146H45V136Z" fill="#FAD2F6"/>
<path d="M393.544 151.017H380V146.035H422V137H433V152.678H422V156H393.544V151.017Z" fill="#CA9DC0"/>
<path d="M173 149.043H187L187 146H380.445V149.478H394V156H173V149.043Z" fill="#E8B5DD"/>
<rect x="411" y="125" width="11" height="11" fill="#BA81B4"/>
<rect x="422" y="115.36" width="11" height="10.0711" fill="#BA81B4"/>
<path d="M45 165.716H420V155.644H433V145.573L444 145.456V54.9333H459V156.024L444 155.644V165.716H435V175.787H33V165.716H21.8906V155.644H9V54.9333H21.8906V145.573H33V155.644H45V165.716Z" fill="#B7AFC7"/>
<rect x="422" y="145.573" width="11" height="10.0711" fill="black"/>
<rect x="433" y="165.716" width="11" height="10.0711" fill="#DFDBE7"/>
<path d="M58 30.2055L58 16.48H300.117H411L411 28.3822H422L422 40.2844H433L433 115.36H422L422 125.431H411V136H54V126H45V115.36H32.5L32 76.5321L32 40.1914H45L45 30.2055H58Z" fill="url(#paint0_linear_405_85)"/>
<path d="M0 54.9333H11V175.787H0V54.9333Z" fill="black"/>
<path d="M45 10.0712H422V20.1423H45V10.0712Z" fill="#FAD2F6"/>
<rect x="455" y="54.9333" width="11" height="120.853" fill="#0E0101"/>
<rect x="411" y="20.1422" width="11" height="10.0711" fill="#BA81B4"/>
<rect x="45" y="155.644" width="377" height="10.0711" fill="#150202"/>
<path d="M422 30.2134H433V40.2845H422V30.2134Z" fill="#BA81B4"/>
<rect x="22" y="20.1422" width="11" height="125.431" fill="#040000"/>
<rect x="61" y="185.858" width="59" height="10.0711" fill="#61598D"/>
<rect x="120" y="185.858" width="53" height="10.0711" fill="#7874A7"/>
<path d="M73 97.5823V90.0823H95.5V82.5823H80.5V75.0823H73V67.5823H80.5V60.0823H110.5V67.5823H88V75.0823H103V82.5823H110.5V90.0823H103V97.5823H73ZM125.5 97.5823V60.0823H140.5V97.5823H125.5ZM163 97.5823V90.0823H155.5V67.5823H163V60.0823H193V67.5823H170.5V90.0823H178V75.0823H193V90.0823H185.5V97.5823H163ZM208 97.5823V60.0823H223V67.5823H230.5V75.0823H238V60.0823H253V97.5823H238V90.0823H230.5V82.5823H223V97.5823H208ZM305.5 97.5823V90.0823H298V60.0823H313V90.0823H320.5V60.0823H335.5V90.0823H328V97.5823H305.5ZM350.5 97.5823V60.0823H380.5V67.5823H388V75.0823H380.5V82.5823H365.5V97.5823H350.5ZM365.5 75.0823H372.7V67.5823H365.5V75.0823Z" fill="#C2C2C2"/>
<path d="M73 92.0889V84.5889H95.5V77.0889H80.5V69.5889H73V62.0889H80.5V54.5889H110.5V62.0889H88V69.5889H103V77.0889H110.5V84.5889H103V92.0889H73ZM125.5 92.0889V54.5889H140.5V92.0889H125.5ZM163 92.0889V84.5889H155.5V62.0889H163V54.5889H193V62.0889H170.5V84.5889H178V69.5889H193V84.5889H185.5V92.0889H163ZM208 92.0889V54.5889H223V62.0889H230.5V69.5889H238V54.5889H253V92.0889H238V84.5889H230.5V77.0889H223V92.0889H208ZM305.5 92.0889V84.5889H298V54.5889H313V84.5889H320.5V54.5889H335.5V84.5889H328V92.0889H305.5ZM350.5 92.0889V54.5889H380.5V62.0889H388V69.5889H380.5V77.0889H365.5V92.0889H350.5ZM365.5 69.5889H372.7V62.0889H365.5V69.5889Z" fill="white"/>
<path d="M422 125H433V136H422V125Z" fill="#FAD2F6"/>
<path d="M45 126H56V136.071H45V126Z" fill="#BA81B4"/>
<defs>
<linearGradient id="paint0_linear_405_85" x1="233.511" y1="14.3979" x2="233.153" y2="133.42" gradientUnits="userSpaceOnUse">
<stop offset="0.761" stop-color="#EAAADB"/>
<stop offset="1" stop-color="#D07ABD"/>
</linearGradient>
</defs>
</svg>
