<svg width="112" height="32" viewBox="0 0 112 32" fill="none" xmlns="http://www.w3.org/2000/svg">
<g id="Layer 5">
<g id="Group">
<g id="Group_2">
<path id="Vector" d="M107.429 2.2828C107.429 1.03001 108.459 0 109.719 0C110.979 0 112 1.03001 112 2.2828C112 3.55235 110.979 4.57518 109.719 4.57518C108.459 4.57518 107.429 3.55235 107.429 2.2828ZM111.669 2.2828C111.669 1.21087 110.821 0.312597 109.719 0.312597C108.608 0.312597 107.763 1.21087 107.763 2.2828C107.763 3.39905 108.608 4.26258 109.719 4.26258C110.823 4.26258 111.669 3.40024 111.669 2.2828ZM110.845 3.56553H110.425L109.663 2.40496H109.123V3.56553H108.766V1.00486H109.932C110.156 1.00486 110.383 1.01684 110.586 1.13421C110.784 1.24201 110.886 1.47196 110.886 1.68395C110.886 2.18818 110.516 2.39418 110.039 2.40496L110.847 3.56553H110.845ZM109.592 2.14027C110.249 2.14027 110.515 2.08159 110.515 1.67916C110.515 1.31866 110.156 1.27075 109.856 1.27075H109.122V2.14027H109.591H109.592Z" fill="#E9E5E1"/>
<g id="Group_3">
<path id="Vector_2" d="M8.78288 32H4.95144V3.96565H0V0.270775H13.635V3.96565H8.78288V32Z" fill="#E9E5E1"/>
<path id="Vector_3" d="M44.5452 31.989H40.8214L40.7771 31.8752L33.0903 12.1157V31.9878H29.2397V0.284912H32.492L32.5363 0.398693L40.6934 21.4361V0.284912H44.5452V31.989Z" fill="#E9E5E1"/>
<path id="Vector_4" d="M60.3754 31.989H45.9088L56.1719 4.26843H47.03L47.4069 0.284912H61.9573L51.7361 28.0055H60.75L60.3742 31.989H60.3754Z" fill="#E9E5E1"/>
<path id="Vector_5" d="M68.5195 31.989H64.6318V0.284912H68.5195V31.989Z" fill="#E9E5E1"/>
<path id="Vector_6" d="M87.971 31.989H84.2509L84.2054 31.8776L76.241 11.9708V31.9902H72.3904V0.284912H75.6403L84.118 21.5799V0.284912H87.9698V31.989H87.971Z" fill="#E9E5E1"/>
<path id="Vector_7" d="M106.89 31.9878H103.701C95.3358 31.9878 90.5387 26.4521 90.5387 16.8011C90.5387 2.42998 99.8852 0.284912 105.456 0.284912H106.334V4.26843H105.37C98.2554 4.26843 94.6465 8.4855 94.6465 16.8011C94.6465 23.7848 97.5327 27.7228 102.781 27.912V12.1564L106.89 11.2857V31.9878Z" fill="#E9E5E1"/>
<path id="Vector_8" d="M26.7656 31.9999H15.5644V0.277847H26.7656V4.13561H19.2666V13.8549H25.2208V17.5258H19.2666V28.1397H26.7656V31.9987V31.9999Z" fill="#E9E5E1"/>
</g>
</g>
</g>
</g>
</svg>
